<svg height="495pt" viewBox="-31 0 495 495.99235" width="495pt" xmlns="http://www.w3.org/2000/svg"><path d="m192.496094 40h48c70.691406 0 128 57.308594 128 128v216h-304v-216c0-70.691406 57.308594-128 128-128zm0 0" fill="#57a4ff"/><path d="m256.496094 448c0 22.089844-17.910156 40-40 40s-40-17.910156-40-40" fill="#57a4ff"/><g fill="#004fac"><path d="m192.496094 64c-57.410156.066406-103.933594 46.589844-104 104 0 4.417969 3.582031 8 8 8 4.417968 0 8-3.582031 8-8 .058594-48.578125 39.421875-87.941406 88-88 4.417968 0 8-3.582031 8-8s-3.582032-8-8-8zm0 0"/><path d="m408.496094 376h-32v-208c-.082032-75.074219-60.925782-135.917969-136-136h-16v-24c0-4.417969-3.582032-8-8-8-4.417969 0-8 3.582031-8 8v24h-16c-75.074219.082031-135.917969 60.925781-136 136v208h-32c-13.253906 0-24 10.746094-24 24v32c0 13.253906 10.746094 24 24 24h144.71875c3.882812 23.085938 23.871094 39.992188 47.28125 39.992188s43.398437-16.90625 47.28125-39.992188h144.71875c13.253906 0 24-10.746094 24-24v-32c0-13.253906-10.746094-24-24-24zm-336-208c.074218-66.242188 53.757812-119.925781 120-120h48c66.242187.074219 119.925781 53.757812 120 120v208h-288zm144 312c-14.546875-.054688-27.226563-9.914062-30.863282-24h61.726563c-3.636719 14.085938-16.316406 23.945312-30.863281 24zm200-48c0 4.417969-3.582032 8-8 8h-384c-4.417969 0-8-3.582031-8-8v-32c0-4.417969 3.582031-8 8-8h384c4.417968 0 8 3.582031 8 8zm0 0"/></g></svg>