<svg height="512" viewBox="0 0 512 512" width="512" xmlns="http://www.w3.org/2000/svg"><g fill="#57a4ff"><path d="m128 280v96h144v-96zm80 72h-40v-40h40z"/><path d="m304 280h80v128h-80z"/><path d="m448 200h-384l48-96h288z"/><path d="m304 280h80v128h-80z"/><path d="m128 280v96h144v-96zm80 72h-40v-40h40z"/><path d="m224 200v32a16 16 0 0 1 -32 0v-32z"/><path d="m160 200v32a16 16 0 0 1 -32 0v-32z"/><path d="m96 200v32a16 16 0 0 1 -32 0v-32z"/><path d="m416 200v32a16 16 0 0 1 -32 0v-32z"/><path d="m352 200v32a16 16 0 0 1 -32 0v-32z"/><path d="m288 200v32a16 16 0 0 1 -32 0v-32z"/></g><path d="m464 400h-40v-145.376a23.992 23.992 0 0 0 32-22.624v-32a8.032 8.032 0 0 0 -.84-3.58l-48-96a8.011 8.011 0 0 0 -7.16-4.42h-288a8.011 8.011 0 0 0 -7.16 4.42l-48 96a8.032 8.032 0 0 0 -.84 3.58v32a23.992 23.992 0 0 0 32 22.624v145.376h-72a8 8 0 0 0 0 16h448a8 8 0 0 0 0-16zm-88-168a8 8 0 0 1 -16 0v-24h16zm-32 0a8 8 0 0 1 -16 0v-24h16zm-32 0a8 8 0 0 1 -16 0v-24h16zm-32 0a8 8 0 0 1 -16 0v-24h16zm-32 0a8 8 0 0 1 -16 0v-24h16zm-32 0a8 8 0 0 1 -16 0v-24h16zm-32 0a8 8 0 0 1 -16 0v-24h16zm-32 0a8 8 0 0 1 -16 0v-24h16zm-32 0a8 8 0 0 1 -16 0v-24h16zm272-24h16v24a8 8 0 0 1 -16 0zm48 24a8 8 0 0 1 -16 0v-24h16zm-323.06-120h278.12l39.991 80h-358.102zm-36.94 128a8.009 8.009 0 0 1 -8-8v-24h16v24a8.009 8.009 0 0 1 -8 8zm232 160v-112h64v112zm80 0v-120a8 8 0 0 0 -8-8h-80a8 8 0 0 0 -8 8v120h-192v-145.376a23.943 23.943 0 0 0 24-4.755 23.943 23.943 0 0 0 32 0 23.943 23.943 0 0 0 32 0 23.943 23.943 0 0 0 32 0 23.943 23.943 0 0 0 32 0 23.943 23.943 0 0 0 32 0 23.943 23.943 0 0 0 32 0 23.943 23.943 0 0 0 32 0 23.943 23.943 0 0 0 32 0 23.943 23.943 0 0 0 24 4.755v145.376z" fill="#004fac"/><path d="m496 400h-8a8 8 0 0 0 0 16h8a8 8 0 0 0 0-16z" fill="#004fac"/><path d="m360 328a8 8 0 0 0 -8 8v16a8 8 0 0 0 16 0v-16a8 8 0 0 0 -8-8z" fill="#004fac"/><path d="m272 272h-144a8 8 0 0 0 -8 8v96a8 8 0 0 0 8 8h144a8 8 0 0 0 8-8v-96a8 8 0 0 0 -8-8zm-8 96h-128v-80h128z" fill="#004fac"/><path d="m168 360h40a8 8 0 0 0 8-8v-8h16a8 8 0 0 0 8-8v-24a8 8 0 0 0 -8-8h-64a8 8 0 0 0 -8 8v40a8 8 0 0 0 8 8zm56-32h-8v-8h8zm-48-8h24v24h-24z" fill="#004fac"/></svg>