<svg height="512" viewBox="0 0 512 512" width="512" xmlns="http://www.w3.org/2000/svg"><g><g fill="#57a4ff"><path d="m104 64h56v56h-56z"/><path d="m104 152h56v56h-56z"/><path d="m104 240h56v56h-56z"/><path d="m104 328h56v56h-56z"/><path d="m304 424h72l-72 72z"/><path d="m245.84 367.23 33.94 33.94-1.01 1-39.59 5.65 5.65-39.59z"/><path d="m376 424-72 72v-72z"/><path d="m104 64h56v56h-56z"/><path d="m104 152h56v56h-56z"/><path d="m104 240h56v56h-56z"/><path d="m104 328h56v56h-56z"/><g><path d="m254.006 281.006h175.999v47.998h-175.999z" transform="matrix(.707 -.707 .707 .707 -115.5 331.168)"/><path d="m279.78 401.17-1.01 1-39.59 5.65 5.65-39.59 1.01-1z"/><path d="m400.715 210.296h23.999v47.998h-23.999z" transform="matrix(.707 -.707 .707 .707 -44.79 360.457)"/></g></g><g fill="#004fac"><path d="m455.14 203.18-11.32-11.32a24.04 24.04 0 0 0 -33.94 0l-25.88 25.88v-201.74a8 8 0 0 0 -8-8h-304a8 8 0 0 0 -8 8v480a8 8 0 0 0 8 8h232a8.008 8.008 0 0 0 5.66-2.34l72-72a8.008 8.008 0 0 0 2.34-5.66v-111a8.065 8.065 0 0 0 -.95-3.79l72.09-72.09a24.04 24.04 0 0 0 0-33.94zm-143.14 273.51v-44.69h44.69zm56-60.69h-64a8 8 0 0 0 -8 8v64h-216v-464h288v209c0 .24.02.47.04.71l-127.86 127.86a7.989 7.989 0 0 0 -2.27 4.52l-5.65 39.6a7.992 7.992 0 0 0 7.92 9.13 7.243 7.243 0 0 0 1.13-.08l39.6-5.65a7.989 7.989 0 0 0 4.52-2.27l82.57-82.56zm-110.85-48.77 5.65-5.66 22.63 22.63-5.66 5.65zm5.65 28.28-13.2 1.89 1.89-13.2zm33.95-22.63-22.63-22.63 113.13-113.13 22.63 22.63zm124.45-124.45-22.63-22.63 5.66-5.65 22.62 22.62zm22.62-22.63-5.65 5.66-22.63-22.63 5.66-5.65a8 8 0 0 1 11.31 0l11.31 11.31a8 8 0 0 1 0 11.31z"/><path d="m381.6 254.088-67.884 67.882a8 8 0 0 0 11.314 11.314l67.882-67.884a8 8 0 0 0 -11.312-11.312z"/><path d="m206.02 34.73a8.006 8.006 0 0 0 -11.29-.75l-28.53 24.97a7.985 7.985 0 0 0 -6.2-2.95h-56a8 8 0 0 0 -8 8v56a8 8 0 0 0 8 8h56a8 8 0 0 0 8-8v-41.37l37.27-32.61a8.005 8.005 0 0 0 .75-11.29zm-54.02 77.27h-40v-40h39.28l-14.92 13.05-2.7-2.71a8 8 0 0 0 -11.32 11.32l8 8a8.01 8.01 0 0 0 10.93.36l10.73-9.39z"/><path d="m104 216h56a8 8 0 0 0 8-8v-56a8 8 0 0 0 -8-8h-56a8 8 0 0 0 -8 8v56a8 8 0 0 0 8 8zm8-56h40v40h-40z"/><path d="m104 304h56a8 8 0 0 0 8-8v-56a8 8 0 0 0 -8-8h-56a8 8 0 0 0 -8 8v56a8 8 0 0 0 8 8zm8-56h40v40h-40z"/><path d="m168 328a8 8 0 0 0 -8-8h-56a8 8 0 0 0 -8 8v56a8 8 0 0 0 8 8h56a8 8 0 0 0 8-8zm-16 48h-40v-40h40z"/><path d="m200 72a8 8 0 0 0 8 8h112a8 8 0 0 0 0-16h-112a8 8 0 0 0 -8 8z"/><path d="m320 88h-112a8 8 0 0 0 0 16h112a8 8 0 0 0 0-16z"/><path d="m208 128h48a8 8 0 0 0 0-16h-48a8 8 0 0 0 0 16z"/><path d="m320 144h-112a8 8 0 0 0 0 16h112a8 8 0 0 0 0-16z"/><path d="m320 168h-112a8 8 0 0 0 0 16h112a8 8 0 0 0 0-16z"/><path d="m208 208h48a8 8 0 0 0 0-16h-48a8 8 0 0 0 0 16z"/><path d="m264 232h-56a8 8 0 0 0 0 16h56a8 8 0 0 0 0-16z"/><path d="m248 256h-40a8 8 0 0 0 0 16h40a8 8 0 0 0 0-16z"/><path d="m240 288a8 8 0 0 0 -8-8h-24a8 8 0 0 0 0 16h24a8 8 0 0 0 8-8z"/><path d="m152 464h-56a8 8 0 0 0 0 16h56a8 8 0 0 0 0-16z"/><path d="m184 464h-8a8 8 0 0 0 0 16h8a8 8 0 0 0 0-16z"/></g></g></svg>