<svg height="512" viewBox="0 0 512 512" width="512" xmlns="http://www.w3.org/2000/svg"><g id="Cone"><path d="m316.67 160h-122.34l37.67-144h47z" fill="#57a4ff"/><path d="m392 448h-273l50.22-192h172.56z" fill="#57a4ff"/><g fill="#004fac"><path d="m440 440h-41.824l-111.437-426.024a8 8 0 0 0 -7.739-5.976h-47a8 8 0 0 0 -7.739 5.976l-111.437 426.024h-40.824a8 8 0 0 0 -8 8v48a8 8 0 0 0 8 8h368a8 8 0 0 0 8-8v-48a8 8 0 0 0 -8-8zm-108.584-192h-151.832l20.926-80h109.98zm-93.239-224h34.646l33.482 128h-101.605zm-62.177 237.7v2.3h159.6l46.038 176h-252.277zm256 226.3h-352v-32h352z"/><path d="m143 464h-48a8 8 0 0 0 0 16h48a8 8 0 0 0 0-16z"/><path d="m175 464h-8a8 8 0 0 0 0 16h8a8 8 0 0 0 0-16z"/></g></g></svg>