<svg height="512" viewBox="0 0 512 512" width="512" xmlns="http://www.w3.org/2000/svg"><path d="m440 16v384h-48v-336h-240v-48z" fill="#57a4ff"/><path d="m392 64v384h-48v-336h-240v-48z" fill="#57a4ff"/><path d="m88 144h224v96h-224z" fill="#57a4ff"/><g fill="#004fac"><path d="m440 8h-288a8 8 0 0 0 -8 8v40h-40a8 8 0 0 0 -8 8v40h-40a8 8 0 0 0 -8 8v384a8 8 0 0 0 8 8h288a8 8 0 0 0 8-8v-40h40a8 8 0 0 0 8-8v-40h40a8 8 0 0 0 8-8v-384a8 8 0 0 0 -8-8zm-104 480h-272v-368h272zm48-48h-32v-328a8 8 0 0 0 -8-8h-232v-32h272zm48-48h-32v-328a8 8 0 0 0 -8-8h-232v-32h272z"/><path d="m312 136h-224a8 8 0 0 0 -8 8v96a8 8 0 0 0 8 8h224a8 8 0 0 0 8-8v-96a8 8 0 0 0 -8-8zm-8 96h-208v-80h208z"/><path d="m312 360h-152a8 8 0 0 0 0 16h152a8 8 0 0 0 0-16z"/><path d="m160 408h120a8 8 0 0 0 0-16h-120a8 8 0 0 0 0 16z"/><path d="m312 392h-8a8 8 0 0 0 0 16h8a8 8 0 0 0 0-16z"/><path d="m312 424h-152a8 8 0 0 0 0 16h152a8 8 0 0 0 0-16z"/><path d="m280 456h-192a8 8 0 0 0 0 16h192a8 8 0 0 0 0-16z"/><path d="m312 456h-8a8 8 0 0 0 0 16h8a8 8 0 0 0 0-16z"/><path d="m98.343 421.657a8 8 0 0 0 11.314 0l32-32a8 8 0 1 0 -11.314-11.314l-26.343 26.344-10.343-10.344a8 8 0 0 0 -11.314 11.314z"/><path d="m312 264h-152a8 8 0 0 0 0 16h152a8 8 0 0 0 0-16z"/><path d="m312 296h-152a8 8 0 0 0 0 16h152a8 8 0 0 0 0-16z"/><path d="m312 328h-152a8 8 0 0 0 0 16h152a8 8 0 0 0 0-16z"/><path d="m98.343 325.657a8 8 0 0 0 11.314 0l32-32a8 8 0 1 0 -11.314-11.314l-26.343 26.344-10.343-10.344a8 8 0 0 0 -11.314 11.314z"/></g></svg>