<svg height="512" viewBox="0 0 512 512" width="512" xmlns="http://www.w3.org/2000/svg"><g fill="#57a4ff"><path d="m192 407.6h128a32 32 0 0 1 32 32v47.8a0 0 0 0 1 0 0h-192a0 0 0 0 1 0 0v-47.8a32 32 0 0 1 32-32z"/><path d="m176 456v32h-160v-32a32 32 0 0 1 32-32h96a31.856 31.856 0 0 1 17.68 5.32v.01a31.968 31.968 0 0 1 14.32 26.67z"/><path d="m496 456v32h-160v-32a31.968 31.968 0 0 1 14.32-26.67v-.01a31.856 31.856 0 0 1 17.68-5.32h96a32 32 0 0 1 32 32z"/><circle cx="256" cy="120" r="96"/></g><path d="m464 416h-24v-16.021a39.963 39.963 0 0 0 16-31.979v-24a40 40 0 0 0 -80 0v24a39.963 39.963 0 0 0 16 31.979v16.021h-24a39.947 39.947 0 0 0 -14.017 2.535 40 40 0 0 0 -33.983-18.935h-40v-15.058a48.014 48.014 0 0 0 24-41.542v-30a48 48 0 0 0 -96 0v30a48.014 48.014 0 0 0 24 41.542v15.058h-40a40 40 0 0 0 -33.983 18.935 39.947 39.947 0 0 0 -14.017-2.535h-24v-16.021a39.963 39.963 0 0 0 16-31.979v-24a40 40 0 0 0 -80 0v24a39.963 39.963 0 0 0 16 31.979v16.021h-24a40.045 40.045 0 0 0 -40 40v32a8 8 0 0 0 8 8h480a8 8 0 0 0 8-8v-32a40.045 40.045 0 0 0 -40-40zm-240-103a32 32 0 0 1 64 0v30a32 32 0 0 1 -64 0zm40 78v8h-16v-8zm128-47a24 24 0 0 1 48 0v24a24 24 0 0 1 -48 0zm16 64h16v8h-16zm-216 7.6h128a24.027 24.027 0 0 1 24 24v39.8h-16v-15.4a8 8 0 0 0 -16 0v15.4h-113v-15.4a8 8 0 0 0 -16 0v15.4h-15v-39.8a24.027 24.027 0 0 1 24-24zm-120-71.6a24 24 0 0 1 48 0v24a24 24 0 0 1 -48 0zm16 64h16v8h-16zm-32 72v-16a8 8 0 0 0 -16 0v16h-16v-24a24.028 24.028 0 0 1 24-24h96a24.016 24.016 0 0 1 8.46 1.531 40.094 40.094 0 0 0 -.46 6.069v24.4a8 8 0 0 0 -16 0v16zm432 0h-16v-16a8 8 0 0 0 -16 0v16h-80v-16a8 8 0 0 0 -16 0v-24.4a40.084 40.084 0 0 0 -.46-6.069 23.993 23.993 0 0 1 8.46-1.531h96a24.028 24.028 0 0 1 24 24z" fill="#004fac"/><path d="m256 224a104 104 0 1 0 -104-104 104.118 104.118 0 0 0 104 104zm0-192a88 88 0 1 1 -88 88 88.1 88.1 0 0 1 88-88z" fill="#004fac"/><path d="m232.232 162.625a8 8 0 0 0 10.309.852l74.111-52.968a8 8 0 1 0 -9.3-13.018l-68.6 49.027-19.207-19.206a8 8 0 0 0 -11.313 11.313z" fill="#004fac"/></svg>