<svg height="512" viewBox="0 0 64 64" width="512" xmlns="http://www.w3.org/2000/svg"><path d="m44 23h-24a12 12 0 1 1 24 0z" fill="#57a4ff"/><path d="m32 3h7v4h-7z" fill="#57a4ff"/><path d="m3 39h58v3h-58z" fill="#57a4ff"/><path d="m3 59h58v3h-58z" fill="#57a4ff"/><g fill="#004fac"><path d="m61 43a1 1 0 0 0 1-1v-3a1 1 0 0 0 -1-1h-17v-14a1 1 0 0 0 1-1 13.009 13.009 0 0 0 -12.01-12.95c0-.017.01-.032.01-.05v-2h6a1 1 0 0 0 1-1v-4a1 1 0 0 0 -1-1h-6a1 1 0 0 0 -2 0v8c0 .018.009.033.01.05a13.009 13.009 0 0 0 -12.01 12.95 1 1 0 0 0 1 1v14h-17a1 1 0 0 0 -1 1v3a1 1 0 0 0 1 1h1.037v15h-1.037a1 1 0 0 0 -1 1v3a1 1 0 0 0 1 1h58a1 1 0 0 0 1-1v-3a1 1 0 0 0 -1-1h-1.037v-15zm-23-39v2h-5v-2zm-6 8a11.015 11.015 0 0 1 10.955 10h-21.91a11.015 11.015 0 0 1 10.955-10zm-10 12h20v14h-20zm-18 16h56v1h-56zm56 21h-56v-1h56zm-2.037-3h-51.926v-15h51.926z"/><path d="m32 25a1 1 0 0 0 -1 1v10a1 1 0 0 0 2 0v-10a1 1 0 0 0 -1-1z"/><path d="m26 25a1 1 0 0 0 -1 1v10a1 1 0 0 0 2 0v-10a1 1 0 0 0 -1-1z"/><path d="m38 25a1 1 0 0 0 -1 1v6a1 1 0 0 0 2 0v-6a1 1 0 0 0 -1-1z"/><path d="m38 34a1 1 0 0 0 -1 1v1a1 1 0 0 0 2 0v-1a1 1 0 0 0 -1-1z"/><path d="m32 57a1 1 0 0 0 1-1v-11a1 1 0 0 0 -2 0v11a1 1 0 0 0 1 1z"/><path d="m26 57a1 1 0 0 0 1-1v-11a1 1 0 0 0 -2 0v11a1 1 0 0 0 1 1z"/><path d="m38 53a1 1 0 0 0 1-1v-7a1 1 0 0 0 -2 0v7a1 1 0 0 0 1 1z"/><path d="m50 57a1 1 0 0 0 1-1v-11a1 1 0 0 0 -2 0v11a1 1 0 0 0 1 1z"/><path d="m44 57a1 1 0 0 0 1-1v-11a1 1 0 0 0 -2 0v11a1 1 0 0 0 1 1z"/><path d="m56 53a1 1 0 0 0 1-1v-7a1 1 0 0 0 -2 0v7a1 1 0 0 0 1 1z"/><path d="m38 57a1 1 0 0 0 1-1v-1a1 1 0 0 0 -2 0v1a1 1 0 0 0 1 1z"/><path d="m14 57a1 1 0 0 0 1-1v-11a1 1 0 0 0 -2 0v11a1 1 0 0 0 1 1z"/><path d="m8 57a1 1 0 0 0 1-1v-11a1 1 0 0 0 -2 0v11a1 1 0 0 0 1 1z"/><path d="m20 53a1 1 0 0 0 1-1v-7a1 1 0 0 0 -2 0v7a1 1 0 0 0 1 1z"/></g></svg>