<svg height="512" viewBox="0 0 512 512" width="512" xmlns="http://www.w3.org/2000/svg"><g fill="#57a4ff"><path d="m240 200h-24v-32h24v-24h32v24h24v32h-24v24h-32z"/><path d="m200 256h112v40h-112z"/><path d="m200 328h112v112h-112z"/><path d="m128 80h256v24h-256z"/><path d="m296 168v32h-24v24h-32v-24h-24v-32h24v-24h32v24z"/><path d="m200 328h112v112h-112z"/><path d="m200 256h112v40h-112z"/><path d="m88 288h32v32h-32z"/><path d="m88 352h32v32h-32z"/><path d="m392 288h32v32h-32z"/><path d="m392 352h32v32h-32z"/><path d="m48 232h96v24h-96z"/><path d="m368 232h96v24h-96z"/><path d="m88 288h32v32h-32z"/><path d="m88 352h32v32h-32z"/><path d="m392 288h32v32h-32z"/><path d="m392 352h32v32h-32z"/></g><path d="m496 432h-8a8 8 0 0 0 0 16h8a8 8 0 0 0 0-16z" fill="#004fac"/><path d="m216 208h16v16a8 8 0 0 0 8 8h32a8 8 0 0 0 8-8v-16h16a8 8 0 0 0 8-8v-32a8 8 0 0 0 -8-8h-16v-16a8 8 0 0 0 -8-8h-32a8 8 0 0 0 -8 8v16h-16a8 8 0 0 0 -8 8v32a8 8 0 0 0 8 8zm8-32h16a8 8 0 0 0 8-8v-16h16v16a8 8 0 0 0 8 8h16v16h-16a8 8 0 0 0 -8 8v16h-16v-16a8 8 0 0 0 -8-8h-16z" fill="#004fac"/><path d="m232 368a8 8 0 0 0 -8 8v16a8 8 0 0 0 16 0v-16a8 8 0 0 0 -8-8z" fill="#004fac"/><path d="m280 368a8 8 0 0 0 -8 8v16a8 8 0 0 0 16 0v-16a8 8 0 0 0 -8-8z" fill="#004fac"/><path d="m200 304h112a8 8 0 0 0 8-8v-40a8 8 0 0 0 -8-8h-112a8 8 0 0 0 -8 8v40a8 8 0 0 0 8 8zm104-40v24h-40v-24zm-96 0h40v24h-40z" fill="#004fac"/><path d="m464 224h-88v-112h8a8 8 0 0 0 8-8v-24a8 8 0 0 0 -8-8h-256a8 8 0 0 0 -8 8v24a8 8 0 0 0 8 8h8v112h-88a8 8 0 0 0 -8 8v24a8 8 0 0 0 8 8h8v168h-41a8 8 0 0 0 0 16h449a8 8 0 0 0 0-16h-8v-168h8a8 8 0 0 0 8-8v-24a8 8 0 0 0 -8-8zm-328-136h240v8h-240zm-80 152h80v8h-80zm16 24h64v168h-64zm80-152h208v320h-40v-104a8 8 0 0 0 -8-8h-112a8 8 0 0 0 -8 8v104h-40zm56 320v-96h40v96zm56 0v-96h40v96zm176 0h-64v-168h64zm16-184h-80v-8h80z" fill="#004fac"/><path d="m120 280h-32a8 8 0 0 0 -8 8v32a8 8 0 0 0 8 8h32a8 8 0 0 0 8-8v-32a8 8 0 0 0 -8-8zm-8 32h-16v-16h16z" fill="#004fac"/><path d="m120 344h-32a8 8 0 0 0 -8 8v32a8 8 0 0 0 8 8h32a8 8 0 0 0 8-8v-32a8 8 0 0 0 -8-8zm-8 32h-16v-16h16z" fill="#004fac"/><path d="m392 328h32a8 8 0 0 0 8-8v-32a8 8 0 0 0 -8-8h-32a8 8 0 0 0 -8 8v32a8 8 0 0 0 8 8zm8-32h16v16h-16z" fill="#004fac"/><path d="m392 392h32a8 8 0 0 0 8-8v-32a8 8 0 0 0 -8-8h-32a8 8 0 0 0 -8 8v32a8 8 0 0 0 8 8zm8-32h16v16h-16z" fill="#004fac"/></svg>