<svg height="512" viewBox="0 0 512 512" width="512" xmlns="http://www.w3.org/2000/svg"><g><path d="m218.98 224a104 104 0 1 0 0 64h117.02l32-24 32 24 32-24 32 24 32-32v-32zm-130.98 56a24 24 0 1 1 24-24 24.006 24.006 0 0 1 -24 24z" fill="#57a4ff"/><g fill="#004fac"><path d="m496 216h-271.36a112 112 0 1 0 0 80h111.36a7.982 7.982 0 0 0 4.8-1.6l27.2-20.4 27.2 20.4a8.01 8.01 0 0 0 9.6 0l27.2-20.4 27.2 20.4a8.009 8.009 0 0 0 10.46-.74l32-32a8.008 8.008 0 0 0 2.34-5.66v-32a8 8 0 0 0 -8-8zm-8 36.69-24.75 24.75-26.45-19.84a8.01 8.01 0 0 0 -9.6 0l-27.2 20.4-27.2-20.4a8.01 8.01 0 0 0 -9.6 0l-29.87 22.4h-114.35a7.994 7.994 0 0 0 -7.61 5.54 96 96 0 1 1 0-59.08 7.994 7.994 0 0 0 7.61 5.54h269.02z"/><path d="m88 224a32 32 0 1 0 32 32 32.036 32.036 0 0 0 -32-32zm0 48a16 16 0 1 1 16-16 16.019 16.019 0 0 1 -16 16z"/><path d="m216 248a8 8 0 0 0 8 8h88a8 8 0 0 0 0-16h-88a8 8 0 0 0 -8 8z"/><path d="m336 256h8a8 8 0 0 0 0-16h-8a8 8 0 0 0 0 16z"/><path d="m472 312h-112a8 8 0 0 0 0 16h112a8 8 0 0 0 0-16z"/><path d="m471 336h-111a8 8 0 0 0 0 16h111a8 8 0 0 0 0-16z"/><path d="m408 360h-48a8 8 0 0 0 0 16h48a8 8 0 0 0 0-16z"/><path d="m440 360h-8a8 8 0 0 0 0 16h8a8 8 0 0 0 0-16z"/></g></g></svg>