<svg height="512" viewBox="0 0 512 512" width="512" xmlns="http://www.w3.org/2000/svg"><g id="Conversation-2" data-name="Conversation"><path d="m232 208v32h-160v-32a32 32 0 0 1 32-32h96a32 32 0 0 1 32 32z" fill="#57a4ff"/><path d="m440 464v32h-160v-32a32 32 0 0 1 32-32h96a32 32 0 0 1 32 32z" fill="#57a4ff"/><path d="m408 472v16" fill="none"/><g fill="#004fac"><path d="m72 248h160a8 8 0 0 0 8-8v-32a40.045 40.045 0 0 0 -40-40h-24v-16.021a39.963 39.963 0 0 0 16-31.979v-24a40 40 0 0 0 -80 0v24a39.963 39.963 0 0 0 16 31.979v16.021h-24a40.045 40.045 0 0 0 -40 40v32a8 8 0 0 0 8 8zm56-152a24 24 0 0 1 48 0v24a24 24 0 0 1 -48 0zm16 64h16v8h-16zm-64 48a24.028 24.028 0 0 1 24-24h96a24.028 24.028 0 0 1 24 24v24h-16v-16a8 8 0 0 0 -16 0v16h-80v-16a8 8 0 0 0 -16 0v16h-16z"/><path d="m440 8h-192a8 8 0 0 0 -8 8v68.687l-37.657 37.656a8 8 0 0 0 5.657 13.657h32v24a8 8 0 0 0 8 8h192a8 8 0 0 0 8-8v-144a8 8 0 0 0 -8-8zm-8 144h-176v-24a8 8 0 0 0 -8-8h-20.687l26.344-26.343a8 8 0 0 0 2.343-5.657v-64h176z"/><path d="m272 400h32a8 8 0 0 0 5.657-13.657l-37.657-37.656v-68.687a8 8 0 0 0 -8-8h-192a8 8 0 0 0 -8 8v144a8 8 0 0 0 8 8h192a8 8 0 0 0 8-8zm-8-16a8 8 0 0 0 -8 8v24h-176v-128h176v64a8 8 0 0 0 2.343 5.657l26.344 26.343z"/><path d="m408 424h-24v-16.021a39.963 39.963 0 0 0 16-31.979v-24a40 40 0 0 0 -80 0v24a39.963 39.963 0 0 0 16 31.979v16.021h-24a40.045 40.045 0 0 0 -40 40v32a8 8 0 0 0 8 8h160a8 8 0 0 0 8-8v-32a40.045 40.045 0 0 0 -40-40zm-72-72a24 24 0 0 1 48 0v24a24 24 0 0 1 -48 0zm16 64h16v8h-16zm80 72h-16v-16a8 8 0 0 0 -16 0v16h-80v-16a8 8 0 0 0 -16 0v16h-16v-24a24.028 24.028 0 0 1 24-24h96a24.028 24.028 0 0 1 24 24z"/><path d="m288 64h112a8 8 0 0 0 0-16h-112a8 8 0 0 0 0 16z"/><path d="m288 96h112a8 8 0 0 0 0-16h-112a8 8 0 0 0 0 16z"/><path d="m288 128h56a8 8 0 0 0 0-16h-56a8 8 0 0 0 0 16z"/><path d="m376 112h-8a8 8 0 0 0 0 16h8a8 8 0 0 0 0-16z"/><path d="m224 312h-112a8 8 0 0 0 0 16h112a8 8 0 0 0 0-16z"/><path d="m224 344h-112a8 8 0 0 0 0 16h112a8 8 0 0 0 0-16z"/><path d="m168 376h-56a8 8 0 0 0 0 16h56a8 8 0 0 0 0-16z"/><path d="m200 376h-8a8 8 0 0 0 0 16h8a8 8 0 0 0 0-16z"/></g></g></svg>