<svg height="496pt" viewBox="0 0 496.64 496" width="496pt" xmlns="http://www.w3.org/2000/svg"><g fill="#57a4ff"><path d="m336 248.332031c.011719 43.542969-31.824219 80.546875-74.878906 87.039063l-20.722656-9.761719c-11.175782-5.261719-23.789063-6.640625-35.839844-3.917969l-3.839844.878906c-31.003906-19.78125-46.4375-56.753906-38.699219-92.707031 7.742188-35.953125 37.023438-63.300781 73.421875-68.574219l20.796875 9.761719c11.179688 5.261719 23.792969 6.640625 35.839844 3.921875l3.363281-.800781c25.292969 16.171875 40.585938 44.136719 40.558594 74.160156zm0 0"/><path d="m103.871094 336.601562.128906-.023437v-16.199219h-96v151.953125h96v-14l-.128906-.023437.128906.023437v-121.753906zm0 0"/><path d="m392.648438 38.332031.128906.023438-.128906-.023438v121.75l.128906-.023437-.128906.023437v16.199219h96v-151.949219h-96zm0 0"/></g><path d="m392.640625 184.25h96c4.417969 0 8-3.582031 8-8v-151.917969c0-4.417969-3.582031-8-8-8h-96c-4.417969 0-8 3.582031-8 8v4.480469l-156.800781-27.441406c-13.496094-2.339844-27.378906-.757813-40 4.558594l-164.480469 71.761718c-16.890625 7.386719-26.292969 25.609375-22.519531 43.65625 3.773437 18.046875 19.683594 30.980469 38.121094 30.984375h150.558593c3.597657 4.734375 8.21875 8.589844 13.519531 11.277344-31.273437 16.734375-50.863281 49.253906-51.039062 84.722656-.027344 23.421875 8.574219 46.035157 24.160156 63.519531l-64.160156 14.71875v-6.160156c0-4.417968-3.582031-8-8-8h-96c-4.417969 0-8 3.582032-8 8v151.921875c0 4.417969 3.582031 8 8 8h96c4.417969 0 8-3.582031 8-8v-4.480469l156.800781 27.4375c13.496094 2.324219 27.371094.742188 40-4.558593l164.480469-71.757813c16.890625-7.390625 26.289062-25.609375 22.519531-43.660156-3.773437-18.046875-19.683593-30.976562-38.121093-30.980469h-150.558594c-3.621094-4.847656-8.335938-8.769531-13.761719-11.441406 25.851563-13.800781 43.953125-38.679687 49.132813-67.523437 5.179687-28.839844-3.140626-58.464844-22.570313-80.394532l64.71875-14.882812v6.160156c0 4.417969 3.582031 8 8 8zm8-151.917969h80v135.917969h-80zm-304.640625 432h-80v-135.921875h80zm205.679688-275.199219c20.941406 18.925782 30.335937 47.496094 24.71875 75.15625-5.617188 27.660157-25.414063 50.304688-52.078126 59.5625l-27.121093-12.71875c-14.417969-6.804687-30.707031-8.550781-46.238281-4.960937l-6.480469 1.4375c-16.871094-15.082031-26.503907-36.648437-26.480469-59.277344.15625-34.148437 21.875-64.46875 54.160156-75.601562l27.28125 12.800781c9.511719 4.464844 19.890625 6.789062 30.398438 6.800781 5.332031-.011719 10.648437-.628906 15.839844-1.839843zm-3.121094 172.636719c2.003906 6.609375 1.042968 13.761719-2.636719 19.601563-6.199219 10.128906-19.074219 13.902344-29.761719 8.71875l-55.441406-27.199219c-3.976562-1.945313-8.773438-.296875-10.71875 3.679687-1.945312 3.976563-.296875 8.777344 3.679688 10.71875l55.441406 27.121094c18.058594 8.890625 39.914062 2.539063 50.398437-14.640625 5.429688-8.789062 7.210938-19.355469 4.960938-29.4375h143.199219c10.863281.011719 20.230468 7.632813 22.453124 18.265625 2.222657 10.632813-3.304687 21.367188-13.253906 25.734375l-164.398437 71.679688c-9.734375 4.144531-20.464844 5.367187-30.878907 3.519531l-159.601562-27.921875v-108.636719l88.71875-20.402344 3.839844-.878906c12.050781-2.722656 24.664062-1.34375 35.839844 3.917969l20.722656 9.761719 24.878906 11.679687c6.089844 2.898438 10.65625 8.25 12.558594 14.71875zm-3.117188-187.597656-3.363281.800781c-12.046875 2.71875-24.660156 1.339844-35.839844-3.921875l-20.796875-9.761719-24.800781-11.679687c-6.089844-2.898437-10.65625-8.25-12.5625-14.71875-1.921875-6.613281-.960937-13.730469 2.640625-19.601563 6.199219-10.128906 19.074219-13.902343 29.761719-8.71875l55.441406 27.199219c1.90625.9375 4.109375 1.078125 6.121094.386719s3.667969-2.152344 4.597656-4.066406c1.921875-3.976563.28125-8.761719-3.679687-10.71875l-55.359376-27.121094c-18.085937-8.886719-39.960937-2.542969-50.480468 14.640625-5.390625 8.804687-7.167969 19.355469-4.960938 29.441406h-143.199218c-10.863282-.015625-20.230469-7.636719-22.453126-18.269531-2.222656-10.632812 3.304688-21.367188 13.253907-25.730469l164.398437-71.679687c9.742188-4.109375 20.460938-5.328125 30.878906-3.519532l159.601563 27.917969v108.640625zm0 0" fill="#004fac"/><path d="m248 216.332031c8.222656 0 16 4.800781 16 9.839844 0 4.417969 3.582031 8 8 8s8-3.582031 8-8c-1.132812-12.925781-11.128906-23.304687-24-24.921875v-.917969c0-4.417969-3.582031-8-8-8s-8 3.582031-8 8v1.039063c-12.488281 2.234375-21.800781 12.757812-22.503906 25.421875 0 16.539062 15 23.203125 27.054687 28.5625 11.203125 4.960937 17.945313 8.414062 17.945313 14.511719 0 5.664062-6.640625 10.464843-14.496094 10.464843-8.222656 0-16-4.800781-16-9.839843 0-4.417969-3.582031-8-8-8s-8 3.582031-8 8c1.132812 12.921874 11.128906 23.300781 24 24.917968v.921875c0 4.417969 3.582031 8 8 8s8-3.582031 8-8v-1.042969c12.484375-2.234374 21.796875-12.757812 22.496094-25.421874 0-16.9375-15.199219-23.703126-27.441406-29.128907-10.917969-4.863281-17.558594-8.222656-17.558594-13.945312 0-5.71875 6.648437-10.460938 14.503906-10.460938zm0 0" fill="#004fac"/></svg>