<svg height="512" viewBox="0 0 512 512" width="512" xmlns="http://www.w3.org/2000/svg"><g><g fill="#57a4ff"><path d="m312 424v40h-112v-40h32v-16h48v16z"/><path d="m480 152h-448a16 16 0 0 0 -16 16v48a16 16 0 0 0 16 16h448a16 16 0 0 0 16-16v-48a16 16 0 0 0 -16-16zm-352 56h-80v-32h80zm264 0a16 16 0 1 1 16-16 16 16 0 0 1 -16 16zm56 0a16 16 0 1 1 16-16 16 16 0 0 1 -16 16z"/><path d="m480 256h-448a16 16 0 0 0 -16 16v48a16 16 0 0 0 16 16h448a16 16 0 0 0 16-16v-48a16 16 0 0 0 -16-16zm-352 56h-80v-32h80zm264 0a16 16 0 1 1 16-16 16 16 0 0 1 -16 16zm56 0a16 16 0 1 1 16-16 16 16 0 0 1 -16 16z"/><path d="m480 48h-448a16 16 0 0 0 -16 16v48a16 16 0 0 0 16 16h448a16 16 0 0 0 16-16v-48a16 16 0 0 0 -16-16zm-352 56h-80v-32h80zm264 0a16 16 0 1 1 16-16 16 16 0 0 1 -16 16zm56 0a16 16 0 1 1 16-16 16 16 0 0 1 -16 16z"/></g><g fill="#004fac"><path d="m496 424h-176a8 8 0 0 0 -8-8h-24v-8a8 8 0 0 0 -8-8v-40a8 8 0 0 0 -8-8h-32a8 8 0 0 0 -8 8v40a8 8 0 0 0 -8 8v8h-24a8 8 0 0 0 -8 8h-176a8 8 0 0 0 -8 8v24a8 8 0 0 0 8 8h176a8 8 0 0 0 8 8h112a8 8 0 0 0 8-8h176a8 8 0 0 0 8-8v-24a8 8 0 0 0 -8-8zm-304 24h-168v-8h168zm56-80h16v32h-16zm56 88h-96v-24h24a8 8 0 0 0 8-8v-8h32v8a8 8 0 0 0 8 8h24zm184-8h-168v-8h168z"/><path d="m480 144h-448a24.028 24.028 0 0 0 -24 24v48a24.028 24.028 0 0 0 24 24h448a24.028 24.028 0 0 0 24-24v-48a24.028 24.028 0 0 0 -24-24zm8 72a8.009 8.009 0 0 1 -8 8h-448a8.009 8.009 0 0 1 -8-8v-48a8.009 8.009 0 0 1 8-8h448a8.009 8.009 0 0 1 8 8z"/><path d="m448 168a24 24 0 1 0 24 24 24.028 24.028 0 0 0 -24-24zm0 32a8 8 0 1 1 8-8 8.009 8.009 0 0 1 -8 8z"/><path d="m392 168a24 24 0 1 0 24 24 24.028 24.028 0 0 0 -24-24zm0 32a8 8 0 1 1 8-8 8.009 8.009 0 0 1 -8 8z"/><path d="m128 168h-80a8 8 0 0 0 -8 8v32a8 8 0 0 0 8 8h80a8 8 0 0 0 8-8v-32a8 8 0 0 0 -8-8zm-8 32h-64v-16h64z"/><path d="m320 184h-168a8 8 0 0 0 0 16h168a8 8 0 0 0 0-16z"/><path d="m352 184h-8a8 8 0 0 0 0 16h8a8 8 0 0 0 0-16z"/><path d="m480 248h-448a24.028 24.028 0 0 0 -24 24v48a24.028 24.028 0 0 0 24 24h448a24.028 24.028 0 0 0 24-24v-48a24.028 24.028 0 0 0 -24-24zm8 72a8.009 8.009 0 0 1 -8 8h-448a8.009 8.009 0 0 1 -8-8v-48a8.009 8.009 0 0 1 8-8h448a8.009 8.009 0 0 1 8 8z"/><path d="m448 272a24 24 0 1 0 24 24 24.028 24.028 0 0 0 -24-24zm0 32a8 8 0 1 1 8-8 8.009 8.009 0 0 1 -8 8z"/><path d="m392 272a24 24 0 1 0 24 24 24.028 24.028 0 0 0 -24-24zm0 32a8 8 0 1 1 8-8 8.009 8.009 0 0 1 -8 8z"/><path d="m128 272h-80a8 8 0 0 0 -8 8v32a8 8 0 0 0 8 8h80a8 8 0 0 0 8-8v-32a8 8 0 0 0 -8-8zm-8 32h-64v-16h64z"/><path d="m320 288h-168a8 8 0 0 0 0 16h168a8 8 0 0 0 0-16z"/><path d="m352 288h-8a8 8 0 0 0 0 16h8a8 8 0 0 0 0-16z"/><path d="m480 40h-448a24.028 24.028 0 0 0 -24 24v48a24.028 24.028 0 0 0 24 24h448a24.028 24.028 0 0 0 24-24v-48a24.028 24.028 0 0 0 -24-24zm8 72a8.009 8.009 0 0 1 -8 8h-448a8.009 8.009 0 0 1 -8-8v-48a8.009 8.009 0 0 1 8-8h448a8.009 8.009 0 0 1 8 8z"/><path d="m448 64a24 24 0 1 0 24 24 24.028 24.028 0 0 0 -24-24zm0 32a8 8 0 1 1 8-8 8.009 8.009 0 0 1 -8 8z"/><path d="m392 64a24 24 0 1 0 24 24 24.028 24.028 0 0 0 -24-24zm0 32a8 8 0 1 1 8-8 8.009 8.009 0 0 1 -8 8z"/><path d="m128 64h-80a8 8 0 0 0 -8 8v32a8 8 0 0 0 8 8h80a8 8 0 0 0 8-8v-32a8 8 0 0 0 -8-8zm-8 32h-64v-16h64z"/><path d="m320 80h-168a8 8 0 0 0 0 16h168a8 8 0 0 0 0-16z"/><path d="m352 80h-8a8 8 0 0 0 0 16h8a8 8 0 0 0 0-16z"/></g></g></svg>