<svg height="512" viewBox="0 0 512 512" width="512" xmlns="http://www.w3.org/2000/svg"><g fill="#57a4ff"><path d="m216 48-8-32h96l-8 32z"/><path d="m352 216v32l-96 96-96-96v-32l32-32h16l48 24 48-24h16z"/><path d="m304 16-8 32h-80l-8-32z"/><path d="m352 216v32l-96 96-96-96v-32l32-32h16l48 24 48-24h16z"/></g><path d="m376 8h-240a24.027 24.027 0 0 0 -24 24v448a24.027 24.027 0 0 0 24 24h240a24.027 24.027 0 0 0 24-24v-448a24.027 24.027 0 0 0 -24-24zm-82.246 16-4 16h-67.508l-4-16zm90.246 456a8.009 8.009 0 0 1 -8 8h-240a8.009 8.009 0 0 1 -8-8v-448a8.009 8.009 0 0 1 8-8h65.754l6.485 25.94a8 8 0 0 0 7.761 6.06h80a8 8 0 0 0 7.761-6.06l6.485-25.94h65.754a8.009 8.009 0 0 1 8 8z" fill="#004fac"/><path d="m325.657 178.343a8 8 0 0 0 -5.657-2.343h-16a7.994 7.994 0 0 0 -3.578.845l-44.422 22.211-44.422-22.211a7.994 7.994 0 0 0 -3.578-.845h-16a8 8 0 0 0 -5.657 2.343l-32 32a8 8 0 0 0 -2.343 5.657v32a8 8 0 0 0 2.343 5.657l96 96a8 8 0 0 0 11.314 0l96-96a8 8 0 0 0 2.343-5.657v-32a8 8 0 0 0 -2.343-5.657zm18.343 66.343-88 88-88-88v-25.372l27.313-27.314h10.8l46.311 23.155a8 8 0 0 0 7.156 0l46.309-23.155h10.8l27.311 27.314z" fill="#004fac"/><path d="m192 464h-48a8 8 0 0 0 0 16h48a8 8 0 0 0 0-16z" fill="#004fac"/><path d="m224 464h-8a8 8 0 0 0 0 16h8a8 8 0 0 0 0-16z" fill="#004fac"/></svg>